<svg id="Layer_1" data-name="Layer 1" xmlns="http://www.w3.org/2000/svg" viewBox="0 0 715.43 762.03"><defs><style>.cls-1{fill:#16110a;fill-rule:evenodd;}</style></defs><path class="cls-1" d="M616.59,636.39c-4.23-3.47-66.23-54.18-126.65-86.71-4.47-2.41-5-2-5.91-1.29-5.08,4-12.24,9.59-33,8.37-20-1.18-47.78-6.85-74-14-28.26-7.75-54.91-17.34-68.21-25.06l-4.2-2.44-.29-4.87c-.8-13.84,3.33-37.38,9.25-59.73,6.24-23.51,14.61-46.32,21.49-55.79l3.11-4.29,5.27.6c30.88,3.5,70.07,16.67,101.63,37.74,26.16,17.47,47.29,40.47,54.81,68.2a52.6,52.6,0,0,1,1.56,7.72c1.29.77,3,1.84,5.61,3.52a905,905,0,0,1,74.05,53.77c19,15.44,38.15,32.63,53.84,50.08a15,15,0,0,1,5.1,16,16.94,16.94,0,0,1-2.83,5.8,15.81,15.81,0,0,1-5,4.3,13.08,13.08,0,0,1-15.68-1.85Zm-118-102.69c24.32,13.09,47.95,31.35,69,46.1,57.52,40.21,32,19,3.34-4.31-29.1-23.65-59.44-42.54-73.86-51.94-2.38-1.54-4.36-2.73-5.77-3.58-3-1.81-4.38-2.62-5.93-5-1.73-2.59-1.79-4-1.91-6.5a27.61,27.61,0,0,0-1.16-6.64c-6.23-23-24.53-42.61-47.35-57.84-27.17-18.15-60.47-29.93-87.9-34-5.09,9.58-11.06,27-15.9,45.29s-8.37,36.76-8.75,49c13.14,6.56,35.55,14.35,59.41,20.88,25,6.86,51.44,12.26,70.29,13.37,13.9.81,17.9-2.32,20.73-4.53C479.56,528.82,483.62,525.64,498.59,533.7Z" transform="translate(-194.78 -124.28)"/><path class="cls-1" d="M351.44,497.28a6,6,0,0,1,3.62-11.54c.19.06,65.47,20.66,81.81,24.28a6.08,6.08,0,0,1-2.63,11.87C418,518.29,351.63,497.34,351.44,497.28Z" transform="translate(-194.78 -124.28)"/><path class="cls-1" d="M357.93,468.64a6.07,6.07,0,0,1,3.79-11.54c6.29,2.06,19.59,7.1,34.06,12.74,17.12,6.67,36,14.26,46.52,18.68a6.06,6.06,0,1,1-4.71,11.17c-10.21-4.3-29-11.83-46.2-18.56C377.28,475.63,364.23,470.71,357.93,468.64Z" transform="translate(-194.78 -124.28)"/><path class="cls-1" d="M364.59,444.09a6.05,6.05,0,0,1,3.4-11.62c8.94,2.63,23.45,8.19,38.3,14.64,13.31,5.79,27.07,12.38,37.54,18.32a6.06,6.06,0,1,1-6,10.53c-10-5.66-23.33-12-36.37-17.71C386.91,451.92,372.94,446.55,364.59,444.09Z" transform="translate(-194.78 -124.28)"/><path class="cls-1" d="M488.42,636.39c2.86-2.35,32.22-26.36,69.65-51.72l-14.26-9.41c-2.17,1.54-4.31,3.06-6.43,4.54-57.51,40.21-32,19-3.34-4.31,1.51-1.23,3-2.46,4.56-3.66l-14.72-9.72c-19,15.43-38.16,32.62-53.83,50.07a15,15,0,0,0-5.11,16,16.94,16.94,0,0,0,2.83,5.8,15.81,15.81,0,0,0,5,4.3,13.08,13.08,0,0,0,15.68-1.85Zm90.38-65.34-14.12-10.7c13.43-9.5,27.47-19,41.74-26.65,15-8.06,19-4.88,25.72.36,2.83,2.21,6.83,5.34,20.73,4.53,18.85-1.11,45.28-6.51,70.29-13.37,23.86-6.53,46.27-14.32,59.41-20.88-.37-12.28-3.94-30.88-8.75-49S763,419.59,757.92,410c-27.43,4.09-60.72,15.87-87.9,34-22.82,15.23-41.12,34.84-47.36,57.84a27.92,27.92,0,0,0-1.15,6.64c-.12,2.52-.18,3.91-1.91,6.5-1.55,2.34-2.9,3.15-5.93,5-1.41.85-3.39,2-5.76,3.58-10.25,6.67-28.51,18.13-48.65,32.68l-14.18-10.75c22.06-16.69,41.75-29.93,52.86-37.15,2.57-1.68,4.31-2.75,5.6-3.52a52.6,52.6,0,0,1,1.56-7.72c7.52-27.73,28.65-50.74,54.81-68.2,31.55-21.07,70.75-34.24,101.63-37.74l5.26-.6,3.12,4.29c6.87,9.47,15.26,32.28,21.49,55.79,5.91,22.35,10.05,45.89,9.25,59.73l-.28,4.87-4.21,2.44c-13.3,7.72-40,17.31-68.21,25.06-26.23,7.18-54,12.85-74,14-20.74,1.22-27.9-4.39-33-8.37-.9-.7-1.44-1.12-5.91,1.29C602.88,556.24,590.63,563.54,578.8,571.05Z" transform="translate(-194.78 -124.28)"/><path class="cls-1" d="M753.57,497.28A6,6,0,1,0,750,485.74c-.19.06-65.47,20.66-81.81,24.28a6.08,6.08,0,1,0,2.63,11.87C687,518.29,753.38,497.34,753.57,497.28Z" transform="translate(-194.78 -124.28)"/><path class="cls-1" d="M747.08,468.64a6.07,6.07,0,0,0-3.79-11.54c-6.29,2.06-19.59,7.1-34.06,12.74-17.13,6.67-36,14.26-46.52,18.68a6.06,6.06,0,1,0,4.71,11.17c10.22-4.3,29-11.83,46.21-18.56C727.73,475.64,740.78,470.71,747.08,468.64Z" transform="translate(-194.78 -124.28)"/><path class="cls-1" d="M740.43,444.09A6.06,6.06,0,0,0,737,432.47c-8.95,2.63-23.45,8.19-38.3,14.64-13.31,5.79-27.07,12.38-37.54,18.32a6.06,6.06,0,1,0,6,10.53c10-5.66,23.33-12,36.37-17.71C718.11,451.92,732.08,446.55,740.43,444.09Z" transform="translate(-194.78 -124.28)"/><path class="cls-1" d="M453.78,413s37.65,1.5,57.75-16.94,51.1-6.15,41.61,19.82S500.81,438.48,453.78,413Z" transform="translate(-194.78 -124.28)"/><path class="cls-1" d="M651.23,413s-37.64,1.5-57.75-16.94-51.1-6.15-41.61,19.82S604.2,438.48,651.23,413Z" transform="translate(-194.78 -124.28)"/><path class="cls-1" d="M420.73,330.52c14.41,1.17,28.43,15.78,31.37,19.62,24-9.59,96.93-37.49,187.4,0l26.15-40.26,18.63,4.19-5.4,6.61-34.2,50.55C577,343.7,516,342.8,443.11,371.26,437.13,354.3,431.64,345.52,420.73,330.52Z" transform="translate(-194.78 -124.28)"/><path class="cls-1" d="M579.76,239.93l2.12-8.26c10.67,7.46,9.63,31.59-4.28,44.65a72.15,72.15,0,0,1-31.2,16.86,92.74,92.74,0,0,1-46-.12c-28.31-7.15-32.82-28.05-31.57-36l6.72,5.27a78.15,78.15,0,0,0,29.08,14.2,75.48,75.48,0,0,0,37.41.14c11.4-3,21.52-9,28.63-18A49.84,49.84,0,0,0,579.76,239.93Z" transform="translate(-194.78 -124.28)"/><path class="cls-1" d="M648.62,260.09l5-6.9c3.84,11.25-4.09,32-17.86,38.49-17.27,8.19-42.17,10.8-72.39-11.91l-6.86-5.11,17.07-8.58C619.63,300.65,648.54,260.2,648.62,260.09Z" transform="translate(-194.78 -124.28)"/><path class="cls-1" d="M658.18,204.7l-8.4,1.53-3-16.8,8.39-1.52c7.74-1.4,31.21,2,51.64,14.47,13,8,25.26,19.62,32.18,36.07a67.66,67.66,0,0,1,4.86,18.28,66,66,0,0,1-9.08,41.8,65,65,0,0,1-30,26.51,53.27,53.27,0,0,1-14.29,3.81,58.45,58.45,0,0,1-38.22-8.41c-13.94-8.51-23.68-21.61-29.15-32l-4-7.55,15.12-8,4,7.55c4.4,8.33,12.1,18.78,22.91,25.38a41.91,41.91,0,0,0,27.35,6.07,36,36,0,0,0,9.71-2.63,47.63,47.63,0,0,0,21.9-19.53,49,49,0,0,0,6.8-31A50.45,50.45,0,0,0,723.21,245c-5.31-12.63-15-21.74-25.32-28.07C681.21,206.77,663.61,203.72,658.18,204.7Z" transform="translate(-194.78 -124.28)"/><path class="cls-1" d="M647.63,222.61l1.51-8.4s2.9-15.61-7.51-33.34c-9.23-15.71-25.87-27.75-44.59-34.24s-39.32-7.38-56.43-.78a76.62,76.62,0,0,0-29,20c-8.37,9.21-14.09,19.82-16.58,29.93l-2,8.27c-9-6.81-13.9-27.8,6-49.68a93.83,93.83,0,0,1,35.53-24.47c21-8.09,45.81-7.15,68.12.6s42.37,22.39,53.71,41.7C673.51,201.48,659.4,217.85,647.63,222.61Z" transform="translate(-194.78 -124.28)"/><path class="cls-1" d="M411.59,268.32l1.57,8.38c-33.49-17.66-13.4-71.3,5.52-90.26,34.73-34.78,77.87-18.11,78-18.06l8,3-14,13c-.09,0-33-12.77-59.88,14.12C403.21,226.11,411.56,268.2,411.59,268.32Z" transform="translate(-194.78 -124.28)"/><path class="cls-1" d="M505.23,277.64,517.83,292l-8.25,2.17c-.16,0-55.83,14.71-78.65,24.13-13.66,5.64-27.74,6.41-39.66,2.81-12.34-3.72-22.34-12-27.45-24.3a41,41,0,0,1-2.75-10.56,48.15,48.15,0,0,1,5.82-28.79,46.5,46.5,0,0,1,22.77-20.71,45.06,45.06,0,0,1,11.8-3.08l8.47-1-6.41,18a27.81,27.81,0,0,0-7.31,1.93,29.46,29.46,0,0,0-14.4,13.14A31,31,0,0,0,378,284.17a23.34,23.34,0,0,0,1.59,6.07,25.33,25.33,0,0,0,16.6,14.54c8.25,2.49,18.26,1.86,28.23-2.26C448.51,292.58,505.07,277.68,505.23,277.64Z" transform="translate(-194.78 -124.28)"/><path class="cls-1" d="M297.45,700.82l-14.14,13.42Q268.88,699,250.88,699.05a35.52,35.52,0,0,0-36,35.92,37.69,37.69,0,0,0,4.62,18.78,33.22,33.22,0,0,0,13,12.91,38,38,0,0,0,18.76,4.67,38.75,38.75,0,0,0,16.06-3.27q7.29-3.28,16-11.93L297,770.44q-11.73,11.47-22.17,15.91A60.34,60.34,0,0,1,251,790.8q-24.71,0-40.47-15.66T194.78,735c0-10.58,2.38-19.94,7.18-28.15a53,53,0,0,1,20.53-19.8,57.87,57.87,0,0,1,28.79-7.49,61.2,61.2,0,0,1,46.17,21.24Zm67.6-21.24q22.45,0,38.63,16.27t16.17,39.66q0,23.19-16,39.23a52.51,52.51,0,0,1-38.7,16.06q-23.86,0-39.61-16.5a55.62,55.62,0,0,1,39.46-94.72Zm-.29,19.76a33.07,33.07,0,0,0-24.62,10.23q-10,10.21-10,26,0,17.55,12.56,27.78a34.31,34.31,0,0,0,22.39,8A32.6,32.6,0,0,0,389.44,761q10.06-10.37,10.06-25.54a35.43,35.43,0,0,0-10.13-25.6,32.93,32.93,0,0,0-24.61-10.47Zm124.17-19.76q22.47,0,38.63,16.27t16.17,39.66q0,23.19-16,39.23a52.51,52.51,0,0,1-38.7,16.06q-23.86,0-39.6-16.5a55.62,55.62,0,0,1,39.45-94.72Zm-.29,19.76A33,33,0,0,0,464,709.57q-10,10.21-10,26,0,17.55,12.56,27.78a34.36,34.36,0,0,0,22.4,8A32.59,32.59,0,0,0,513.32,761q10.06-10.37,10.06-25.54a35.43,35.43,0,0,0-10.13-25.6,32.93,32.93,0,0,0-24.61-10.47ZM563,682.23h20.36v36.63l28.66-36.63h24.32l-37,47.28L640,788.14H616L583.39,741v47.17H563V682.23Zm89.86,0H673V788.14H652.89V682.23Zm42.9,0h19.13l45.63,69.7v-69.7H780.6V788.14H761.33l-45.48-69.47v69.47H695.79V682.23Zm206.88,17.31-14.19,14Q875,699.35,857.09,699.34q-15.6,0-26.16,10.35a34,34,0,0,0-10.55,25.18,34.86,34.86,0,0,0,10.94,26q11,10.65,27,10.64,10.44,0,17.6-4.4t11.55-13.74H856.82V734.45h53.24l.16,4.45A51.83,51.83,0,0,1,903,765.25a50.79,50.79,0,0,1-18.66,19q-11.46,6.53-26.89,6.54A59.82,59.82,0,0,1,828,783.64a52.63,52.63,0,0,1-20.48-20.4A57,57,0,0,1,800,734.65a53,53,0,0,1,13.91-36.56q16.48-18.51,42.95-18.51a65.43,65.43,0,0,1,25.89,5.11Q892.92,689,902.67,699.54Z" transform="translate(-194.78 -124.28)"/><path class="cls-1" d="M367.61,833.63h9.48l12,35.85,12-35.85h9.46L419.16,885h-9.44l-5.49-32.46L393.36,885h-8.64l-10.83-32.46L368.29,885h-9.55l8.87-51.39Zm100.81,0h9.85L498.05,885H487.88l-4-10.59H462.8L458.7,885H448.52l19.9-51.39Zm4.94,13.66-7,17.69h13.9l-6.93-17.69Zm84.9-6.67L551,847q-3.81-5.29-7.76-5.3a4.74,4.74,0,0,0-3.15,1,3,3,0,0,0-1.23,2.32,4,4,0,0,0,.87,2.45,68.4,68.4,0,0,0,7.2,6.6q5.6,4.68,6.79,5.9a20.75,20.75,0,0,1,4.23,5.74,14.52,14.52,0,0,1,1.24,6,13.72,13.72,0,0,1-4.38,10.45q-4.37,4.13-11.42,4.12a17,17,0,0,1-9.56-2.68,21.3,21.3,0,0,1-7-8.46l8.25-5q3.72,6.79,8.55,6.8a6.33,6.33,0,0,0,4.25-1.47,4.39,4.39,0,0,0,1.72-3.39,5.78,5.78,0,0,0-1.31-3.49,36.55,36.55,0,0,0-5.71-5.35q-8.42-6.84-10.85-10.55a13.43,13.43,0,0,1-2.46-7.43,12.14,12.14,0,0,1,4.07-9.16,14.13,14.13,0,0,1,10-3.83,16,16,0,0,1,7.33,1.78,26.88,26.88,0,0,1,7.54,6.5Zm30.84-7h28.41v9.67h-9.37V885h-9.95V843.3H589.1v-9.67Zm60.77,0h28.06v9.59H659.6v9.23h18.33v9.46H659.6v13.52h18.33V885H649.87V833.63Zm63.41,0h10.39q8.52,0,12.14,1.52a12.43,12.43,0,0,1,5.83,5.05,15.5,15.5,0,0,1,2.2,8.35,14.25,14.25,0,0,1-2.42,8.47,14.69,14.69,0,0,1-7.31,5.16L746.24,885H735.55L724,863.26h-1V885h-9.73V833.63ZM723,853.74h3.1c3.15,0,5.31-.4,6.5-1.22a4.63,4.63,0,0,0,1.78-4.09,5,5,0,0,0-.88-2.94,4.76,4.76,0,0,0-2.36-1.79,17.74,17.74,0,0,0-5.43-.55H723Z" transform="translate(-194.78 -124.28)"/><path class="cls-1" d="M291.52,597.33H313v7.34H299v7.07h14V619H299v10.35h14v7.34H291.52V597.33Zm49.07,5.35-5.54,4.89q-2.93-4.05-5.94-4.05a3.62,3.62,0,0,0-2.41.79,2.29,2.29,0,0,0-.94,1.78,3,3,0,0,0,.66,1.87,54.48,54.48,0,0,0,5.5,5q4.29,3.59,5.21,4.51a16.18,16.18,0,0,1,3.23,4.39,11.13,11.13,0,0,1,.95,4.59,10.46,10.46,0,0,1-3.35,8,12.22,12.22,0,0,1-8.74,3.15,13,13,0,0,1-7.32-2,16.22,16.22,0,0,1-5.34-6.47l6.3-3.8q2.85,5.2,6.54,5.2a4.81,4.81,0,0,0,3.25-1.12,3.34,3.34,0,0,0,1.32-2.59,4.52,4.52,0,0,0-1-2.68,29.44,29.44,0,0,0-4.37-4.09c-4.3-3.49-7.06-6.18-8.32-8.08a10.3,10.3,0,0,1-1.88-5.67,9.28,9.28,0,0,1,3.12-7,10.79,10.79,0,0,1,7.69-2.93,12,12,0,0,1,5.6,1.36,20.17,20.17,0,0,1,5.77,5Zm4-5.35h21.74v7.39h-7.17v31.94h-7.62V604.72H344.6v-7.39Zm26.89,0h8.86c5.72,0,10,.71,12.75,2.13a16.54,16.54,0,0,1,6.86,6.91,22.31,22.31,0,0,1,2.69,11.17,22.55,22.55,0,0,1-1.5,8.35,17.38,17.38,0,0,1-4.18,6.33,14.83,14.83,0,0,1-5.75,3.48q-3.09,1-10.73,1h-9V597.33Zm7.45,7.23v24.81h3.47c3.42,0,5.89-.39,7.43-1.18a8.77,8.77,0,0,0,3.78-4,14.49,14.49,0,0,0,1.47-6.85c0-4.17-1.16-7.42-3.49-9.71q-3.15-3.12-10.12-3.11Z" transform="translate(-194.78 -124.28)"/><path class="cls-1" d="M704.33,610.22h-7.1c.2-4.14,1.49-7.4,3.9-9.77a13.7,13.7,0,0,1,15.42-2.09,11,11,0,0,1,4.26,4.24,11.16,11.16,0,0,1,1.61,5.64,16.77,16.77,0,0,1-1.95,7.35,39.9,39.9,0,0,1-7.11,9.3l-4.29,4.54h13.67v6.72H696.17v-3.49L708,620.58a34.67,34.67,0,0,0,5.72-7,10.23,10.23,0,0,0,1.42-4.78,4.94,4.94,0,0,0-1.47-3.66,5.2,5.2,0,0,0-3.79-1.44,5,5,0,0,0-3.9,1.75,7.27,7.27,0,0,0-1.67,4.76Zm64.25-12.38H779.5v38.31h-7.25V604.67h-7.9l4.23-6.83Zm-23.69-1a12.56,12.56,0,0,1,7.22,2.06,13,13,0,0,1,4.69,6.28q1.65,4.24,1.65,11.78t-1.68,11.88a13.37,13.37,0,0,1-4.52,6.24,12.22,12.22,0,0,1-7.16,2,12.58,12.58,0,0,1-7.25-2,13,13,0,0,1-4.62-6.1q-1.66-4.08-1.66-11.64,0-10.53,3.25-15.28a11.59,11.59,0,0,1,10.08-5.21Zm.22,6.94a5,5,0,0,0-3.27,1.18,7.62,7.62,0,0,0-2.17,4.06,35.78,35.78,0,0,0-.75,8.44c0,4.83.58,8.17,1.72,10a5.15,5.15,0,0,0,4.47,2.77,4.69,4.69,0,0,0,4.19-2.62q1.89-3.18,1.89-10.6t-1.7-10.39a5,5,0,0,0-4.38-2.85Zm54,33.29-6.2-3.08,6.66-13a11.15,11.15,0,0,1-8.27-3.49,11.93,11.93,0,0,1-3.4-8.66,11.46,11.46,0,0,1,3.5-8.49,12.07,12.07,0,0,1,20.56,8.41,12.26,12.26,0,0,1-.54,3.56,36.65,36.65,0,0,1-2.46,5.5l-9.85,19.28Zm.91-23a4.47,4.47,0,0,0,3.41-1.48,5.56,5.56,0,0,0-.07-7.41,4.53,4.53,0,0,0-3.37-1.51,4.69,4.69,0,0,0-3.48,1.49,5.51,5.51,0,0,0,0,7.43A4.69,4.69,0,0,0,800,614.11Z" transform="translate(-194.78 -124.28)"/></svg>