<?xml version="1.0" standalone="no"?>
<!DOCTYPE svg PUBLIC "-//W3C//DTD SVG 20010904//EN"
 "http://www.w3.org/TR/2001/REC-SVG-20010904/DTD/svg10.dtd">
<svg version="1.0" xmlns="http://www.w3.org/2000/svg"
 width="1280.000000pt" height="1280.000000pt" viewBox="0 0 1280.000000 1280.000000"
 preserveAspectRatio="xMidYMid meet">
<metadata>
Created by potrace 1.15, written by Peter Selinger 2001-2017
</metadata>
<g transform="translate(0.000000,1280.000000) scale(0.100000,-0.100000)"
fill="#000000" stroke="none">
<path d="M6035 12378 c-11 -6 -23 -16 -27 -22 -15 -21 -8 -66 13 -87 19 -19
27 -20 182 -14 148 7 552 -7 654 -21 36 -5 45 -3 68 20 32 33 30 72 -5 97 -20
14 -58 20 -178 29 -210 14 -681 13 -707 -2z"/>
<path d="M5095 12270 c-325 -65 -660 -158 -687 -192 -24 -27 -23 -59 2 -86 26
-28 47 -27 144 3 118 38 423 114 584 145 153 30 182 44 182 91 0 30 -40 70
-69 68 -9 0 -79 -13 -156 -29z"/>
<path d="M7660 12237 c-38 -19 -48 -61 -24 -93 17 -23 43 -33 189 -69 201 -50
331 -88 515 -150 117 -39 139 -44 163 -34 30 12 43 45 33 83 -4 16 -21 30 -53
44 -88 37 -366 123 -558 172 -249 63 -237 61 -265 47z"/>
<path d="M3489 11717 c-299 -152 -554 -305 -572 -344 -14 -32 7 -74 45 -87 23
-8 46 3 189 89 90 55 256 146 369 203 113 58 213 112 223 120 25 22 22 77 -5
96 -12 9 -32 16 -43 16 -12 0 -104 -42 -206 -93z"/>
<path d="M9182 11674 c-26 -18 -30 -74 -7 -97 8 -8 61 -40 118 -70 140 -75
313 -180 475 -288 73 -49 143 -89 155 -89 26 0 67 38 67 62 0 33 -14 50 -89
102 -200 140 -637 396 -677 396 -11 0 -30 -7 -42 -16z"/>
<path d="M5880 10979 c-678 -82 -1268 -420 -1605 -919 -32 -47 -59 -87 -61
-89 -2 -2 -59 15 -126 37 -464 154 -980 146 -1435 -24 -587 -218 -1003 -669
-1124 -1219 -32 -143 -36 -370 -11 -521 72 -420 303 -773 688 -1050 112 -81
334 -193 487 -247 l118 -42 0 -252 c0 -192 3 -253 12 -253 7 0 26 8 42 18 17
10 849 490 1850 1067 1001 576 1831 1056 1845 1066 17 11 30 35 39 69 18 72
99 231 162 320 64 91 227 260 328 342 625 503 1495 649 1841 308 366 -359 -40
-1074 -825 -1455 -171 -83 -302 -131 -460 -168 -208 -49 -407 -60 -569 -32
l-88 15 -726 -418 c-400 -231 -1334 -769 -2077 -1197 -742 -427 -1356 -782
-1362 -787 -10 -8 -13 -307 -13 -1410 0 -1314 1 -1400 17 -1394 9 4 274 155
588 335 313 181 1171 674 1905 1096 734 422 1339 770 1343 775 4 4 -17 38 -47
75 -66 80 -70 108 -28 176 205 322 1320 950 1686 949 91 0 96 -12 18 -44 -322
-137 -1053 -565 -1304 -764 -108 -86 -109 -89 -51 -162 47 -60 49 -61 87 -55
179 27 1017 482 1413 767 67 48 94 61 140 68 139 23 167 -16 99 -132 -23 -39
-36 -49 -113 -82 -331 -142 -1034 -555 -1285 -754 -88 -71 -106 -95 -86 -120
63 -81 84 -102 105 -102 136 0 1025 480 1432 773 l85 61 82 0 c68 0 87 -4 104
-19 15 -14 19 -26 15 -45 -12 -46 -65 -129 -88 -136 -44 -13 -385 -184 -537
-269 -449 -252 -852 -518 -898 -595 -12 -19 -8 -27 39 -81 50 -58 54 -60 88
-54 182 34 974 461 1367 738 96 67 120 80 122 66 14 -80 -210 -295 -513 -495
-471 -309 -980 -534 -1207 -534 -76 0 -84 5 -161 98 l-27 33 -1971 -1133
c-1084 -624 -1971 -1138 -1971 -1143 0 -14 196 -95 356 -148 523 -174 1242
-288 2075 -328 275 -13 1088 -7 1316 10 397 30 671 61 960 107 894 143 1524
404 1666 690 l24 49 3 2130 2 2130 83 28 c205 71 460 222 637 379 361 321 599
767 676 1268 24 158 24 454 0 610 -61 396 -216 752 -454 1043 -82 100 -251
261 -349 334 -278 207 -595 334 -925 373 -153 18 -441 8 -582 -20 -284 -56
-588 -193 -803 -361 -35 -27 -66 -49 -71 -49 -4 0 -39 32 -77 71 -306 310
-770 537 -1260 615 -118 19 -540 27 -655 13z"/>
<path d="M2149 10802 c-179 -160 -467 -457 -476 -491 -10 -40 16 -75 58 -79
34 -3 42 4 169 138 73 78 201 203 284 278 208 189 206 187 206 216 0 34 -33
66 -68 66 -23 0 -60 -28 -173 -128z"/>
<path d="M10510 10730 c-43 -43 -30 -65 116 -210 128 -128 301 -316 407 -442
39 -46 54 -58 78 -58 37 0 69 32 69 68 0 44 -248 325 -502 570 -103 99 -130
110 -168 72z"/>
<path d="M1197 9700 c-46 -36 -257 -390 -378 -632 -57 -114 -62 -129 -51 -152
6 -15 23 -31 37 -38 43 -19 70 2 116 94 89 178 220 406 331 577 60 92 63 132
11 160 -29 15 -36 14 -66 -9z"/>
<path d="M11546 9469 c-37 -29 -34 -66 14 -144 84 -137 243 -450 320 -630 10
-24 30 -51 44 -60 42 -28 96 3 96 55 0 76 -342 742 -403 785 -28 20 -39 19
-71 -6z"/>
<path d="M493 8235 c-40 -28 -130 -353 -199 -720 -20 -105 -22 -135 -13 -158
21 -49 98 -49 117 0 6 16 23 91 37 168 30 162 92 416 135 555 17 54 30 103 30
109 0 18 -47 61 -67 61 -10 0 -28 -7 -40 -15z"/>
<path d="M12193 7980 c-46 -19 -47 -40 -9 -198 44 -186 70 -324 100 -530 26
-177 37 -202 88 -202 29 0 68 30 68 53 0 7 -7 65 -15 128 -35 271 -128 707
-156 734 -20 19 -51 25 -76 15z"/>
<path d="M222 6617 c-21 -22 -22 -33 -22 -184 0 -176 13 -400 35 -588 11 -101
17 -122 35 -137 29 -24 65 -23 90 2 22 22 24 51 10 150 -15 109 -30 365 -33
558 -2 180 -3 184 -26 203 -31 25 -63 24 -89 -4z"/>
<path d="M12363 6528 c-18 -21 -21 -46 -32 -278 -6 -140 -18 -309 -26 -375
-30 -249 -29 -231 -6 -254 26 -26 72 -27 95 -2 33 36 76 454 76 733 0 161 -1
167 -22 182 -31 22 -61 20 -85 -6z"/>
<path d="M424 4995 c-12 -18 -14 -35 -9 -62 19 -101 185 -568 264 -745 31 -69
81 -88 121 -48 29 29 25 54 -20 161 -61 141 -143 366 -195 534 -25 82 -54 158
-62 167 -25 27 -79 23 -99 -7z"/>
<path d="M12132 4923 c-13 -11 -39 -73 -68 -163 -58 -180 -125 -356 -198 -523
-33 -76 -53 -134 -49 -145 25 -71 98 -72 133 -1 73 141 290 727 290 781 0 25
-43 68 -68 68 -11 0 -29 -8 -40 -17z"/>
<path d="M1086 3508 c-9 -12 -16 -32 -16 -43 0 -49 410 -626 502 -707 38 -34
102 -14 108 32 5 35 -3 51 -57 116 -96 117 -263 344 -341 464 -42 63 -84 125
-95 138 -28 30 -80 30 -101 0z"/>
<path d="M11458 3450 c-9 -6 -64 -79 -122 -163 -99 -143 -199 -275 -343 -452
-68 -82 -76 -112 -43 -145 24 -24 57 -26 87 -5 45 32 321 388 453 585 70 104
79 141 41 172 -26 20 -47 22 -73 8z"/>
<path d="M2146 2269 c-39 -31 -35 -73 12 -116 119 -111 337 -286 518 -416 129
-93 165 -105 199 -67 27 30 22 71 -11 97 -16 12 -110 83 -209 156 -99 74 -231
179 -294 233 -119 104 -159 134 -177 134 -6 0 -23 -9 -38 -21z"/>
<path d="M10400 2223 c-8 -4 -66 -50 -130 -103 -127 -107 -302 -240 -453 -345
-107 -73 -127 -100 -109 -140 13 -29 53 -48 79 -38 32 11 326 220 463 330 169
134 240 203 240 230 0 41 -53 80 -90 66z"/>
<path d="M3502 1360 c-29 -12 -44 -52 -32 -86 8 -20 39 -39 143 -89 171 -82
378 -169 545 -230 l133 -48 27 20 c29 22 39 61 23 91 -6 11 -55 35 -128 62
-165 61 -395 157 -547 229 -71 34 -132 61 -135 60 -3 0 -16 -4 -29 -9z"/>
<path d="M8955 1284 c-169 -77 -393 -169 -533 -218 -73 -25 -142 -51 -153 -57
-44 -23 -40 -96 7 -117 20 -10 40 -6 117 19 133 45 395 148 554 220 175 78
211 114 166 167 -31 36 -53 34 -158 -14z"/>
<path d="M5026 811 c-24 -26 -24 -68 0 -92 39 -38 721 -139 859 -127 47 4 72
37 61 81 -9 38 -29 45 -157 57 -168 15 -335 37 -504 66 -225 39 -237 40 -259
15z"/>
<path d="M7465 809 c-100 -21 -464 -69 -595 -79 -80 -6 -160 -13 -178 -16 -64
-10 -81 -85 -27 -120 23 -15 40 -15 173 -5 171 14 394 42 572 72 133 22 170
41 170 85 0 27 -28 61 -55 67 -11 2 -38 1 -60 -4z"/>
</g>
</svg>
